<svg xmlns="http://www.w3.org/2000/svg" width="1600" height="900" viewBox="0 0 1600 900">
  <defs>
    <linearGradient id="office-sky-grad" x1="0" y1="0" x2="0" y2="700">
      <stop offset="0%" stop-color="#e3f2fd" />
      <stop offset="100%" stop-color="#f0f4f8" />
    </linearGradient>
    <linearGradient id="glass-reflect" x1="0" y1="0" x2="1" y2="1">
      <stop offset="0%" stop-color="#b3d9ff" />
      <stop offset="50%" stop-color="#7fbfff" />
      <stop offset="100%" stop-color="#4da6ff" />
    </linearGradient>
    <linearGradient id="floor-office" x1="0" y1="0" x2="1" y2="0">
      <stop offset="0%" stop-color="#e8e8e8" />
      <stop offset="50%" stop-color="#f0f0f0" />
      <stop offset="100%" stop-color="#e8e8e8" />
    </linearGradient>
  </defs>
  
  <!-- Sky background -->
  <rect width="1600" height="900" fill="url(#office-sky-grad)" />
  
  <!-- Polished concrete floor -->
  <rect y="700" width="1600" height="200" fill="url(#floor-office)" />
  <!-- Shadow lines -->
  <line x1="0" y1="750" x2="1600" y2="750" stroke="#d0d0d0" stroke-width="1" opacity="0.4" />
  <line x1="0" y1="800" x2="1600" y2="800" stroke="#d0d0d0" stroke-width="1" opacity="0.4" />
  
  <!-- Left building - Modern office with glass -->
  <rect x="120" y="250" width="280" height="480" fill="#e0e0e0" stroke="#999" stroke-width="2" />
  <!-- Glass window grid -->
  <g>
    <rect x="145" y="280" width="55" height="55" fill="url(#glass-reflect)" stroke="#0288d1" stroke-width="1" />
    <rect x="220" y="280" width="55" height="55" fill="url(#glass-reflect)" stroke="#0288d1" stroke-width="1" />
    <rect x="145" y="360" width="55" height="55" fill="url(#glass-reflect)" stroke="#0288d1" stroke-width="1" />
    <rect x="220" y="360" width="55" height="55" fill="url(#glass-reflect)" stroke="#0288d1" stroke-width="1" />
    <rect x="145" y="440" width="55" height="55" fill="url(#glass-reflect)" stroke="#0288d1" stroke-width="1" />
    <rect x="220" y="440" width="55" height="55" fill="url(#glass-reflect)" stroke="#0288d1" stroke-width="1" />
    <rect x="145" y="520" width="55" height="55" fill="url(#glass-reflect)" stroke="#0288d1" stroke-width="1" />
    <rect x="220" y="520" width="55" height="55" fill="url(#glass-reflect)" stroke="#0288d1" stroke-width="1" />
  </g>
  <!-- Glass door entrance -->
  <rect x="165" y="650" width="70" height="90" fill="url(#glass-reflect)" stroke="#0288d1" stroke-width="2" />
  <circle cx="220" cy="695" r="6" fill="#0288d1" />
  
  <!-- Center building - Tall premium office tower -->
  <rect x="520" y="150" width="320" height="580" fill="#d0d8e0" stroke="#999" stroke-width="2" />
  <!-- Large glass panel grid -->
  <g>
    <rect x="550" y="190" width="60" height="60" fill="url(#glass-reflect)" stroke="#01579b" stroke-width="1" />
    <rect x="630" y="190" width="60" height="60" fill="url(#glass-reflect)" stroke="#01579b" stroke-width="1" />
    <rect x="710" y="190" width="60" height="60" fill="url(#glass-reflect)" stroke="#01579b" stroke-width="1" />
    <rect x="790" y="190" width="60" height="60" fill="url(#glass-reflect)" stroke="#01579b" stroke-width="1" />
    
    <rect x="550" y="280" width="60" height="60" fill="url(#glass-reflect)" stroke="#01579b" stroke-width="1" />
    <rect x="630" y="280" width="60" height="60" fill="url(#glass-reflect)" stroke="#01579b" stroke-width="1" />
    <rect x="710" y="280" width="60" height="60" fill="url(#glass-reflect)" stroke="#01579b" stroke-width="1" />
    <rect x="790" y="280" width="60" height="60" fill="url(#glass-reflect)" stroke="#01579b" stroke-width="1" />
    
    <rect x="550" y="370" width="60" height="60" fill="url(#glass-reflect)" stroke="#01579b" stroke-width="1" />
    <rect x="630" y="370" width="60" height="60" fill="url(#glass-reflect)" stroke="#01579b" stroke-width="1" />
    <rect x="710" y="370" width="60" height="60" fill="url(#glass-reflect)" stroke="#01579b" stroke-width="1" />
    <rect x="790" y="370" width="60" height="60" fill="url(#glass-reflect)" stroke="#01579b" stroke-width="1" />
    
    <rect x="550" y="460" width="60" height="60" fill="url(#glass-reflect)" stroke="#01579b" stroke-width="1" />
    <rect x="630" y="460" width="60" height="60" fill="url(#glass-reflect)" stroke="#01579b" stroke-width="1" />
    <rect x="710" y="460" width="60" height="60" fill="url(#glass-reflect)" stroke="#01579b" stroke-width="1" />
    <rect x="790" y="460" width="60" height="60" fill="url(#glass-reflect)" stroke="#01579b" stroke-width="1" />
  </g>
  <!-- Main entrance -->
  <rect x="615" y="650" width="100" height="100" fill="url(#glass-reflect)" stroke="#01579b" stroke-width="2" />
  <circle cx="665" cy="705" r="8" fill="#01579b" />
  
  <!-- Right building - Modern curved corner office -->
  <rect x="1020" y="320" width="300" height="410" fill="#e0e0e0" stroke="#999" stroke-width="2" />
  <!-- Glass facade -->
  <g>
    <rect x="1050" y="360" width="55" height="55" fill="url(#glass-reflect)" stroke="#00838f" stroke-width="1" />
    <rect x="1135" y="360" width="55" height="55" fill="url(#glass-reflect)" stroke="#00838f" stroke-width="1" />
    <rect x="1220" y="360" width="55" height="55" fill="url(#glass-reflect)" stroke="#00838f" stroke-width="1" />
    
    <rect x="1050" y="450" width="55" height="55" fill="url(#glass-reflect)" stroke="#00838f" stroke-width="1" />
    <rect x="1135" y="450" width="55" height="55" fill="url(#glass-reflect)" stroke="#00838f" stroke-width="1" />
    <rect x="1220" y="450" width="55" height="55" fill="url(#glass-reflect)" stroke="#00838f" stroke-width="1" />
    
    <rect x="1050" y="540" width="55" height="55" fill="url(#glass-reflect)" stroke="#00838f" stroke-width="1" />
    <rect x="1135" y="540" width="55" height="55" fill="url(#glass-reflect)" stroke="#00838f" stroke-width="1" />
    <rect x="1220" y="540" width="55" height="55" fill="url(#glass-reflect)" stroke="#00838f" stroke-width="1" />
  </g>
  <!-- Side entrance -->
  <rect x="1290" y="650" width="75" height="85" fill="url(#glass-reflect)" stroke="#00838f" stroke-width="2" />
  <circle cx="1327" cy="695" r="6" fill="#00838f" />
  
  <!-- Landscaping/Green areas -->
  <ellipse cx="400" cy="750" rx="120" ry="30" fill="#a8d5a8" opacity="0.5" />
  <ellipse cx="1400" cy="750" rx="100" ry="25" fill="#a8d5a8" opacity="0.5" />
  
  <!-- Title overlay with professional styling -->
  <rect x="50" y="50" width="680" height="130" fill="rgba(30, 30, 30, 0.87)" rx="8" />
  <text x="75" y="105" fill="#d4af37" font-size="46" font-family="Merriweather, serif" font-weight="bold">Premium Office Complex</text>
  <text x="75" y="160" fill="#f0f0f0" font-size="18" font-family="Inter, sans-serif">Modern workspace architecture with glass facades</text>
</svg>
